<svg width="795" height="802" viewBox="0 0 795 802" fill="none" xmlns="http://www.w3.org/2000/svg">
<g filter="url(#filter0_dd_1_10)">
<rect x="4" width="787" height="793.433" rx="150" fill="#242938"/>
<path d="M480.683 292.98L407.796 317.211L344.384 345.704L326.644 350.472C322.126 354.847 317.389 359.279 312.265 363.766C306.646 368.701 301.412 373.189 297.39 376.441C292.928 380.031 286.316 386.762 282.956 391.024C277.942 397.418 273.976 404.204 272.268 409.421C269.237 418.845 270.726 428.379 276.565 437.186C284.058 448.403 298.988 459.845 316.397 467.641C325.267 471.624 340.197 476.728 351.436 479.588C370.112 484.412 406.253 489.629 426.141 490.414C430.162 490.582 435.561 490.582 435.781 490.414C436.222 490.133 439.308 484.132 442.889 476.673C455.12 451.264 463.934 427.426 468.727 407.066C471.592 394.727 473.85 378.293 475.337 358.831C475.724 353.39 475.888 335.161 475.558 328.991C475.062 318.895 474.18 310.706 472.804 302.686C472.583 301.507 472.527 300.442 472.638 300.386C472.858 300.218 473.519 299.993 482.499 297.356L480.682 292.982V292.981H480.683V292.98ZM464.045 302.909C464.706 302.909 466.469 320.128 466.909 331.01C467.02 333.309 466.964 334.823 466.854 334.823C466.414 334.823 457.543 329.496 451.209 325.457C445.699 321.923 435.232 314.856 433.58 313.51C433.027 313.118 433.082 313.062 437.601 311.491C445.258 308.854 463.439 302.909 464.045 302.909ZM426.913 315.361C427.409 315.361 428.675 316.089 431.705 317.997C443.054 325.232 458.481 333.982 465.092 336.899C467.13 337.797 467.349 337.46 462.667 340.713C452.641 347.668 440.134 354.511 424.818 361.41C422.119 362.644 419.86 363.597 419.806 363.597C419.696 363.597 420.025 362.195 420.466 360.512C424.157 346.545 426.251 332.411 426.362 321.081C426.417 315.472 426.417 315.472 426.913 315.305C426.802 315.361 426.857 315.361 426.913 315.361ZM419.255 318.333C419.585 318.669 419.365 331.234 418.924 334.655C417.932 342.844 416.39 350.472 413.856 359.054C413.25 361.128 412.698 362.868 412.589 362.98C412.368 363.26 404.82 355.744 402.341 352.828C398.043 347.779 394.684 342.731 392.204 337.796C390.937 335.272 388.954 330.336 389.119 330.168C390 329.551 419.035 318.109 419.255 318.333ZM383.224 332.748C383.279 332.748 383.334 332.748 383.39 332.804C383.499 332.916 383.886 333.814 384.216 334.823C385.979 339.703 389.945 346.882 393.361 351.482C397.108 356.53 402.011 361.914 406.087 365.447C407.41 366.569 408.621 367.634 408.786 367.803C409.117 368.14 409.227 368.083 400.247 371.561C389.836 375.599 378.486 379.638 365.484 383.9C362.378 384.92 359.275 385.948 356.174 386.985C355.678 387.154 355.843 386.873 357.276 384.574C363.721 374.309 373.528 354.174 379.037 339.927C379.974 337.459 380.91 334.992 381.076 334.431C381.296 333.645 381.571 333.365 382.287 332.972C382.673 332.861 383.059 332.748 383.224 332.748ZM372.206 337.403C372.371 337.516 369.562 343.517 366.807 349.014C361.463 359.614 355.623 370.047 347.8 382.723C346.478 384.91 345.211 386.93 345.045 387.154C344.77 387.547 344.66 387.434 343.778 385.696C341.905 381.938 340.362 377.114 339.536 372.683C338.709 368.307 338.875 360.68 339.812 355.969C340.527 352.492 340.473 352.548 342.125 351.706C349.177 348.06 371.986 337.179 372.206 337.403ZM467.24 341.33V343.685C467.24 356.193 465.918 373.356 463.989 385.865C463.659 388.052 463.382 389.846 463.328 389.903C463.328 389.903 461.731 389.455 459.858 388.893C451.594 386.256 442.614 382.386 434.515 377.844C429.17 374.871 421.403 369.991 421.624 369.766C421.678 369.711 423.992 368.477 426.691 367.018C437.491 361.297 447.847 355.128 456.827 349.014C460.188 346.714 465.256 343.013 466.359 342.003L467.24 341.33ZM330.611 357.931C330.831 357.931 330.776 358.38 330.445 360.399C330.225 361.858 329.95 364.55 329.84 366.4C329.398 374.589 330.722 380.647 334.688 388.948C335.79 391.248 336.672 393.155 336.616 393.211C336.23 393.548 299.76 404.429 288.3 407.626C284.884 408.579 281.91 409.421 281.688 409.476C281.303 409.589 281.248 409.533 281.413 408.579C282.68 400.334 288.851 389.565 297.445 380.478C303.175 374.421 307.748 370.888 315.571 366.344C321.19 363.091 329.839 358.212 330.501 357.987C330.501 357.931 330.556 357.931 330.611 357.931ZM416.555 373.58C416.61 373.524 417.932 374.254 419.53 375.207C431.32 382.162 447.737 388.612 461.73 391.921L462.998 392.202L461.234 393.211C453.907 397.362 429.832 407.569 405.206 416.937C401.625 418.282 398.099 419.629 397.437 419.909C396.776 420.189 396.17 420.358 396.17 420.302C396.17 420.245 397.162 418.282 398.428 415.871C405.315 402.746 412.257 386.761 415.783 375.655C416.225 374.59 416.499 373.637 416.555 373.58ZM407.796 376.497C407.851 376.554 407.41 377.731 406.859 379.077C402.066 390.912 395.785 403.813 387.742 418.283C385.704 421.986 383.995 424.958 383.94 424.958C383.885 424.958 382.232 423.948 380.249 422.714C368.569 415.423 358.212 406.449 351.436 397.755L350.444 396.521L355.457 395.118C373.417 390.127 388.677 384.743 403.828 378.124C405.977 377.227 407.741 376.497 407.796 376.497ZM462.227 395.848C462.282 397.138 459.472 408.692 457.158 417.049C455.23 424.06 453.576 429.557 450.547 439.26C449.225 443.523 448.069 447.056 448.013 447.056C447.958 447.056 447.627 447 447.297 446.889C430.935 443.859 416.28 439.652 402.507 434.044C398.65 432.473 393.141 429.949 392.81 429.669C392.701 429.555 396.006 427.986 400.193 426.135C425.26 414.973 451.264 402.297 460.188 396.857C461.235 396.184 462.061 395.848 462.227 395.848ZM336.561 400.223C336.671 400.335 329.675 410.599 319.868 424.565C316.452 429.445 312.486 435.166 310.998 437.297C309.511 439.428 307.252 442.794 305.985 444.813L303.67 448.459L301.191 446.328C298.271 443.859 293.203 438.587 290.944 435.671C286.206 429.67 283.011 423.332 281.744 417.555C281.138 414.862 281.138 413.515 281.688 413.348C282.514 413.124 297.224 409.59 310.998 406.336C318.656 404.542 327.525 402.411 330.721 401.626C333.916 400.839 336.506 400.223 336.561 400.223ZM343.613 402.971L345.375 404.99C353.309 414.021 361.408 420.696 371.214 426.528C372.977 427.538 374.299 428.435 374.189 428.492C373.804 428.772 340.142 440.943 324.551 446.44C315.791 449.58 308.574 452.104 308.519 452.104C308.465 452.104 307.968 451.768 307.417 451.375L306.426 450.646L308.023 448.291C313.201 440.662 319.703 432.306 333.862 414.918L343.613 402.971ZM387.577 434.997C387.631 434.942 390.055 435.838 393.03 436.961C400.193 439.709 405.867 441.448 413.47 443.411C422.836 445.823 436.388 448.179 444.377 448.852C445.589 448.963 446.25 449.076 446.03 449.245C445.643 449.469 437.546 452.217 431.596 454.124C422.119 457.153 393.196 465.846 369.617 472.746C365.264 474.036 361.518 475.101 361.297 475.157C360.747 475.27 358.928 474.764 358.928 474.54C358.928 474.428 360.25 472.69 361.848 470.783C369.781 461.135 377.66 450.366 384.216 440.158C386.034 437.353 387.577 435.053 387.577 434.997ZM377.88 435.278C377.935 435.334 374.024 441.728 367.193 452.721C364.272 457.377 361.022 462.649 359.865 464.5C358.763 466.295 357.11 469.1 356.174 470.67L354.576 473.531L353.75 473.306C351.766 472.745 337.828 467.753 334.136 466.239C329.564 464.388 324.826 462.145 321.3 460.238C316.893 457.825 311.384 454.235 311.824 454.124C311.934 454.068 319.482 451.992 328.572 449.469C352.703 442.793 366.09 438.924 374.85 436.119C376.448 435.614 377.825 435.222 377.88 435.278ZM446.47 451.655H446.525C446.746 452.217 437.821 477.457 434.569 485.421C433.854 487.216 433.58 487.665 433.193 487.608C432.256 487.553 419.31 485.702 411.431 484.524C397.714 482.392 374.685 478.297 368.9 476.952L367.578 476.672L375.786 474.763C393.416 470.725 401.9 468.538 410.494 465.846C421.348 462.481 432.092 458.274 442.944 453.114C444.652 452.328 446.084 451.712 446.47 451.655Z" fill="url(#paint0_linear_1_10)"/>
<path d="M405.537 120.003C404.325 119.836 384.767 127.015 372.151 132.23C355.127 139.298 341.905 146.029 333.751 151.861C330.722 154.05 326.92 157.919 326.314 159.433C326.094 159.994 325.983 160.667 325.983 161.34L333.366 168.464L350.94 174.185L392.756 181.813L440.575 190.17L441.072 185.964C440.907 185.964 440.796 185.908 440.632 185.908L434.35 184.898L433.084 182.599C426.582 170.932 419.42 156.461 415.234 146.701C411.984 139.129 408.898 130.38 407.19 124.098C406.253 120.284 406.143 120.06 405.538 120.004V120.003H405.537V120.003ZM404.654 122.864H404.711C404.765 122.92 404.986 124.491 405.207 126.341C406.142 134.195 407.851 141.765 410.55 149.955C412.588 156.125 412.588 155.788 410.22 155.059C404.601 153.489 379.424 149.058 361.188 146.478C358.268 146.085 355.789 145.692 355.789 145.637C355.568 145.412 368.955 138.288 374.85 135.485C382.398 131.95 403.113 123.144 404.654 122.864ZM351.546 147.992L353.695 148.72C365.374 152.759 394.738 158.48 410.936 159.826C412.753 159.995 414.296 160.163 414.351 160.163C414.405 160.219 412.864 161.061 410.88 162.014C403.058 165.996 394.463 170.876 388.513 174.634C386.75 175.755 385.152 176.653 384.932 176.653C384.712 176.653 383.555 176.429 382.343 176.26L380.139 175.923L374.631 170.426C364.934 160.836 357.331 153.432 354.411 150.627L351.546 147.992ZM349.343 149.73L357.111 159.602C361.352 165.043 365.65 170.371 366.587 171.548C367.523 172.727 368.295 173.681 368.24 173.737C368.019 173.905 357.001 171.717 351.161 170.371C345.156 168.969 342.677 168.296 338.986 167.118L335.955 166.108V165.323C336.01 161.564 340.694 155.956 348.627 150.235L349.343 149.73ZM415.343 163.192C415.564 163.192 415.839 163.696 416.5 165.211C418.373 169.417 424.214 180.747 425.645 182.935C426.087 183.664 426.857 183.72 419.09 182.43C400.414 179.345 394.408 178.336 394.408 178.224C394.408 178.168 394.959 177.775 395.675 177.382C401.46 174.13 407.3 169.979 412.479 165.548C413.746 164.482 414.903 163.472 415.123 163.304C415.178 163.192 415.288 163.136 415.343 163.192Z" fill="url(#paint1_linear_1_10)"/>
<path d="M326.699 158.648C326.699 158.648 325.488 160.612 326.644 163.529C327.361 165.323 329.454 167.51 331.823 169.754C331.823 169.754 356.339 194.096 359.314 197.574C372.866 213.503 378.761 229.208 379.312 250.859C379.643 264.769 377.053 276.996 370.608 291.186C359.148 316.651 334.962 344.752 297.665 375.937L303.12 374.086C306.646 371.393 311.439 368.534 322.677 362.251C348.626 347.78 377.825 334.487 413.635 320.801C465.2 301.057 549.989 277.948 598.249 270.434L603.263 269.648L602.491 268.414C598.084 261.459 595.053 257.14 591.417 252.541C580.84 239.192 568.004 228.367 552.302 219.393C530.706 207.11 502.773 197.519 467.405 190.395C460.739 189.048 446.084 186.469 434.184 184.618C408.951 180.637 392.644 177.888 374.684 174.747C368.239 173.624 358.597 171.942 352.206 170.54C348.901 169.81 342.566 168.296 337.608 166.558C333.641 164.986 327.911 163.416 326.699 158.648ZM340.914 172.671C340.968 172.616 341.849 172.951 343.007 173.344C345.1 174.072 347.8 174.914 350.996 175.812C353.414 176.489 355.838 177.143 358.268 177.775C361.573 178.616 364.327 179.401 364.382 179.401C364.769 179.794 370.333 197.909 372.206 204.865C372.922 207.502 373.474 209.745 373.418 209.745C373.362 209.801 372.757 208.847 372.041 207.557C365.595 196.003 355.403 184.281 343.613 174.857C342.071 173.737 340.914 172.727 340.914 172.671ZM368.019 180.299C368.295 180.299 369.507 180.467 370.993 180.804C380.359 182.935 397.163 186.188 407.905 188.039C409.724 188.319 411.156 188.657 411.156 188.768C411.156 188.881 410.495 189.273 409.668 189.722C407.851 190.675 400.523 195.106 398.099 196.789C391.984 200.939 386.475 205.426 382.508 209.464C380.91 211.091 379.533 212.437 379.533 212.437C379.533 212.437 379.203 211.484 378.926 210.306C376.944 202.509 372.812 190.955 369.065 182.822C368.459 181.533 367.963 180.355 367.963 180.243C367.963 180.355 367.963 180.299 368.019 180.299ZM415.729 189.554C416.059 189.665 416.61 191.573 417.712 195.779C419.75 203.912 420.687 212.999 420.357 221.468C420.246 223.824 420.136 226.011 420.025 226.292L419.86 226.852L416.996 225.899C411.101 223.992 401.515 221.131 393.307 218.776C388.623 217.486 384.823 216.308 384.823 216.196C384.823 215.859 391.654 208.904 394.574 206.268C400.137 201.275 415.232 189.385 415.729 189.554ZM419.53 190.114C419.696 189.946 442.338 193.928 452.641 195.947C460.299 197.461 471.427 199.817 472.088 200.098C472.419 200.21 471.261 200.883 467.57 202.566C453.026 209.241 442.227 215.241 431.486 222.534C428.676 224.441 426.307 226.011 426.252 226.011C426.197 226.011 426.142 224.385 426.142 222.421C426.142 211.765 424.048 200.996 420.191 191.909C419.805 191.012 419.475 190.171 419.53 190.114ZM478.093 201.893C478.259 202.061 477.542 206.605 476.881 209.297C474.898 217.654 469.554 230.05 462.999 241.716C461.841 243.791 460.794 245.474 460.683 245.53C460.574 245.586 459.087 244.744 457.378 243.735C450.988 239.921 443.716 236.331 435.782 232.966C433.579 232.012 431.65 231.227 431.595 231.115C431.209 230.778 448.949 218.832 458.315 213.111C465.753 208.512 477.872 201.668 478.093 201.893ZM482.28 202.566C482.776 202.566 492.803 205.371 498.036 206.941C510.983 210.868 525.858 216.42 535.554 220.907L539.575 222.759L536.766 223.431C513.077 228.983 492.803 235.378 473.245 243.455C471.647 244.128 470.214 244.689 470.105 244.689C469.995 244.689 470.546 243.399 471.262 241.828C477.157 229.096 480.958 215.803 481.894 204.473C481.95 203.407 482.114 202.566 482.28 202.566ZM382.453 225.899C382.618 225.73 390.276 227.582 394.408 228.759C400.688 230.554 414.02 235.097 414.02 235.434C414.02 235.49 412.533 236.78 410.771 238.351C403.554 244.464 396.612 250.914 388.292 259.103C385.813 261.516 383.72 263.479 383.61 263.479C383.5 263.479 383.445 263.141 383.5 262.693C384.766 253.27 384.492 241.155 382.729 228.871C382.563 227.3 382.398 225.955 382.453 225.899ZM543.378 226.068C543.487 226.179 539.851 232.012 537.538 235.321C534.233 240.145 529.383 246.54 518.42 260.562C512.636 267.965 506.134 276.323 503.987 279.127C501.782 281.931 499.965 284.287 499.909 284.287C499.854 284.287 499.139 283.278 498.367 282.044C492.196 272.621 484.814 264.376 476.054 256.972C474.401 255.569 472.584 254.055 471.978 253.606C471.372 253.158 470.876 252.709 470.876 252.653C470.876 252.485 480.24 248.39 487.349 245.474C499.8 240.313 516.766 234.144 529.494 230.161C536.16 228.03 543.267 225.955 543.378 226.068ZM547.62 227.189C547.839 227.133 549.162 227.806 550.76 228.759C564.148 236.555 577.259 246.595 587.617 256.916C590.537 259.833 597.754 267.461 597.643 267.517C597.643 267.517 595.109 267.741 592.134 267.965C568.94 269.761 539.246 274.752 510.708 281.762C508.78 282.211 507.072 282.604 506.962 282.604C506.853 282.604 509 280.416 511.7 277.781C528.448 261.347 536.106 250.97 545.141 232.461C546.408 229.713 547.51 227.357 547.62 227.189C547.565 227.189 547.565 227.189 547.62 227.189ZM424.929 239.978C425.701 240.145 432.863 243.568 438.261 246.315C443.22 248.838 450.658 252.878 451.043 253.214C451.098 253.27 448.453 254.672 445.204 256.299C434.846 261.571 425.976 266.562 416.72 272.284C414.076 273.91 411.872 275.257 411.817 275.257C411.597 275.257 411.652 275.032 413.139 272.284C418.098 263.086 422.064 252.092 424.324 241.379C424.543 240.538 424.764 239.978 424.929 239.978ZM417.767 241.323C417.932 241.492 416.059 248.39 414.903 252.148C412.643 259.272 408.842 268.19 405.151 274.92C404.269 276.49 402.947 278.79 402.231 280.08L400.854 282.323L397.769 279.295C394.188 275.761 391.267 273.574 387.522 271.61C386.033 270.826 384.877 270.152 384.877 270.041C384.877 269.592 394.298 260.898 401.515 254.616C406.693 250.073 417.602 241.155 417.767 241.323ZM461.566 259.665L464.266 261.459C470.435 265.554 477.707 270.994 483.272 275.761C486.412 278.397 492.472 283.951 493.685 285.297L494.345 286.027L489.883 287.316C464.651 294.439 445.148 300.777 422.395 309.303C419.86 310.256 417.712 311.041 417.546 311.041C417.217 311.041 416.94 311.321 422.615 305.993C437.16 292.364 450.051 277.332 459.637 262.693L461.566 259.665ZM450.051 262.581C450.161 262.693 442.614 273.518 438.096 279.631C432.697 286.923 423.111 299.15 416.5 307.114C413.746 310.424 411.377 313.172 411.266 313.229C411.101 313.284 411.046 312.443 411.046 311.153C411.046 304.366 409.338 297.13 406.363 290.961C405.096 288.381 404.875 287.764 405.152 287.484C406.198 286.53 422.23 277.219 432.366 271.667C439.198 267.965 449.885 262.469 450.051 262.581ZM380.414 279.969C380.58 279.969 381.847 280.641 383.28 281.427C386.805 283.39 389.946 285.577 392.755 287.933C392.865 288.045 391.433 289.223 389.56 290.625C384.326 294.439 376.393 300.553 371.766 304.311C366.917 308.237 366.752 308.349 367.303 307.508C370.939 301.843 372.756 298.646 374.685 294.552C376.393 290.906 378.1 286.587 379.312 282.829C379.753 281.203 380.304 279.969 380.414 279.969ZM398.981 294.775C399.256 294.72 399.587 295.224 401.074 297.468C404.214 302.235 406.638 308.63 407.245 313.79L407.354 314.912L399.808 317.885C386.309 323.213 373.859 328.486 365.429 332.411C363.061 333.533 358.928 335.552 356.229 336.899C353.53 338.3 351.326 339.366 351.326 339.31C351.326 339.255 353.033 337.964 355.127 336.393C371.6 324.223 385.869 310.873 396.557 297.524C397.714 296.122 398.761 294.832 398.87 294.776L398.981 294.775ZM390.442 296.907C390.662 297.131 384.382 304.367 380.085 308.797C369.452 319.848 358.929 328.486 345.872 336.899C344.219 337.964 342.732 338.918 342.566 339.03C342.18 339.255 342.676 338.693 348.406 332.355C352.042 328.373 354.796 325.008 357.937 320.858C360.03 318.11 360.416 317.717 363.447 315.528C371.545 309.583 390.221 296.682 390.442 296.907Z" fill="url(#paint2_radial_1_10)"/>
<path d="M187.652 541.229C187.653 541.232 187.65 541.235 187.648 541.235C186.633 541.235 185.618 541.333 184.613 541.333C164.085 542.444 150.241 551.618 142.146 569.534C135.223 585.737 135.979 606.917 142.224 623.22C149.486 639.15 161.22 647.557 180.807 650.732C184.952 651.421 187.731 653.732 195.757 663.249L203.743 672.751C204.942 674.177 206.709 675 208.571 675V675C214.153 675 216.983 668.281 213.082 664.288L211.635 662.806C205.051 656.121 199.726 650.299 199.726 649.787C199.726 649.276 202.245 648.156 205.293 647.212C215.344 644.123 223.69 636.238 229.528 624.153C234.253 614.449 234.932 611.449 235.609 599.375C237.381 563.438 218.725 540.97 187.657 541.224C187.654 541.224 187.652 541.227 187.652 541.229V541.229ZM203.362 635.212C203.359 635.215 203.355 635.218 203.351 635.22C194.637 639.504 181.988 640.358 173.73 637.281C165.19 634.096 156.922 625.089 153.203 614.892C149.069 603.742 149.659 583.172 154.384 573.909C161.985 559.16 172.036 552.375 186.723 552.375C208.508 552.375 220.902 565.926 222.519 591.392C223.797 612.648 216.789 628.595 203.372 635.205C203.369 635.207 203.365 635.209 203.362 635.212V635.212ZM512.785 571.943C512.785 571.937 512.78 571.933 512.775 571.933C505.266 571.935 499.518 575.024 495.646 581.106V581.106C494.765 582.502 492.606 581.878 492.606 580.227V576.207C492.606 574.655 491.348 573.397 489.797 573.397H486.105C482.514 573.397 479.603 576.308 479.603 579.899V642.023C479.603 645.612 482.512 648.521 486.1 648.521V648.521C489.689 648.521 492.598 645.612 492.598 642.023V624.509C492.598 602.552 492.867 599.985 495.889 593.977C500.053 585.737 507.217 581.628 514.141 583.595V583.595C516.46 584.282 518.788 582.544 518.788 580.125V574.954C518.788 573.296 517.444 571.953 515.786 571.953H512.795C512.789 571.953 512.785 571.948 512.785 571.943V571.943ZM436.392 571.244C433.844 571.244 431.143 571.589 428.453 572.189C411.052 576.809 401.244 593.722 401.845 611.126C401.845 625.699 404.632 632.984 411.557 640.625C425.742 652.444 438.57 653.387 455.882 647.046C456.957 646.581 458.067 646.089 459.044 645.652C460.879 644.831 462.049 643.004 462.049 640.993V639.443C462.049 636.277 458.684 634.245 455.882 635.719V635.719C441.871 641.913 431.318 641.913 422.864 634.617V634.617C414.735 626.211 424.472 614.726 436.166 614.726H456.306C461.9 614.726 466.435 610.191 466.435 604.597V604.597C466.435 583.948 454.197 570.91 436.381 571.244H436.392ZM415.187 604.184C415.187 604.184 415.187 604.184 415.187 604.184C415.188 604.179 417.125 591.303 424.308 586.249C427.765 583.771 431.734 582.572 435.616 582.572C439.509 582.572 443.392 583.85 446.597 586.338V586.338C454.985 592.889 445.13 604.087 434.486 604.087H415.236C415.209 604.087 415.187 604.109 415.187 604.136V604.184C415.187 604.184 415.187 604.184 415.187 604.184V604.184ZM101.703 590.63C101.703 590.632 101.7 590.634 101.698 590.632C87.6041 581.961 81.3508 575.707 82.1155 568.333C83.875 551.924 100.277 550.538 113.783 554.639C118.035 555.93 122.916 553.026 122.948 548.584V548.584C122.965 546.254 121.589 544.147 119.356 543.483C116.1 542.516 110.854 541.329 104.481 541.225C87.7698 540.969 76.9644 546.534 71.9012 557.862C64.4645 574.578 71.0493 587.183 94.8489 601.245C108.21 609.14 114.116 615.994 114.116 623.466C114.116 638.904 95.7874 644.293 76.8782 634.607V634.607C72.6677 632.479 69.1239 634.463 69.103 639.18C69.1025 639.291 69.1021 639.4 69.1019 639.51C69.0926 643.376 71.4714 646.811 75.1745 647.923C77.4915 648.618 80.3919 649.382 83.7144 650.034C105.324 654.409 124.99 644.115 126.849 627.399C128.466 611.707 122.879 603.477 101.708 590.627C101.706 590.626 101.703 590.627 101.703 590.63V590.63ZM627.854 571.078C627.859 571.075 627.856 571.068 627.851 571.068C625.319 571.069 622.633 571.423 619.832 572.021C602.453 576.642 592.663 593.555 593.331 610.96C593.331 625.513 596.11 632.729 603.033 640.359C617.218 652.189 630.047 653.142 647.446 646.791C648.51 646.329 649.609 645.844 650.577 645.413C652.418 644.594 653.594 642.765 653.594 640.751V639.189C653.594 636.028 650.23 634.003 647.437 635.483V635.483C633.398 641.658 622.843 641.658 614.42 634.363V634.363C606.249 625.977 616.018 614.47 627.727 614.47H647.766C653.359 614.47 657.894 609.936 657.894 604.342V604.342C657.894 583.8 645.663 570.753 627.858 571.088C627.852 571.088 627.85 571.081 627.854 571.078V571.078ZM606.675 603.92C606.674 603.922 606.676 603.931 606.677 603.929C606.854 602.849 608.948 590.911 615.794 585.993C619.242 583.506 623.211 582.306 627.093 582.306C630.966 582.306 634.869 583.584 638.074 586.082V586.082C646.499 592.662 636.571 603.919 625.881 603.919H606.676C606.675 603.919 606.675 603.919 606.675 603.92V603.92ZM368.325 590.802C368.324 590.802 368.324 590.802 368.324 590.802C354.227 582.149 347.991 575.875 348.747 568.5C350.506 552.083 366.909 550.701 380.415 554.805C384.666 556.097 389.548 553.193 389.58 548.75V548.75C389.596 546.421 388.221 544.314 385.987 543.651C382.731 542.686 377.485 541.503 371.113 541.411C354.401 541.156 343.596 546.721 338.523 558.048C331.097 574.763 337.768 587.37 361.489 601.431C374.832 609.318 380.738 616.082 380.738 623.555C380.738 638.993 362.419 644.47 343.509 634.695V634.695C339.307 632.561 335.755 634.567 335.734 639.28C335.733 639.381 335.733 639.481 335.733 639.582C335.723 643.464 338.13 646.906 341.848 648.021C344.133 648.706 346.983 649.466 350.248 650.142C371.878 654.528 391.553 644.242 393.403 627.526C395.01 611.913 389.434 603.683 368.331 590.824C368.327 590.822 368.325 590.818 368.325 590.814V590.803C368.325 590.802 368.325 590.802 368.325 590.802V590.802ZM704.272 571.756C696.758 571.756 690.94 574.852 687.134 580.94V580.94C686.25 582.334 684.093 581.708 684.093 580.057V576.044C684.093 574.49 682.834 573.231 681.28 573.231H677.592C674.001 573.231 671.09 576.142 671.09 579.732V641.837C671.09 645.425 673.999 648.334 677.587 648.334V648.334C681.175 648.334 684.084 645.425 684.084 641.837V624.323C684.084 602.375 684.344 599.799 687.377 593.801C691.54 585.571 698.704 581.452 705.627 583.428V583.428C707.946 584.114 710.274 582.376 710.274 579.957V577.334C710.274 574.254 707.777 571.756 704.696 571.756L704.272 571.756ZM264.918 590.369C264.918 590.369 264.918 590.369 264.918 590.369V549.077C264.918 545.456 261.983 542.522 258.363 542.522V542.522C254.743 542.522 251.808 545.456 251.808 549.077V628.501C251.808 639.547 260.763 648.501 271.808 648.501H300.682C304.138 648.501 306.94 645.699 306.94 642.243V642.243C306.94 638.787 304.138 635.985 300.682 635.985H284.918C273.872 635.985 264.918 627.03 264.918 615.985V590.369C264.918 590.369 264.918 590.369 264.918 590.369V590.369ZM568.085 605.29C568.086 605.289 568.088 605.29 568.088 605.292L561.065 623.849C559.766 627.282 554.899 627.246 553.65 623.795L546.895 605.128L537.774 577.63C536.919 575.051 534.506 573.309 531.789 573.309V573.309C527.451 573.309 524.408 577.587 525.851 581.678C533.038 602.06 540.678 622.639 548.405 642.768C549.738 646.24 553.038 648.56 556.757 648.538V648.538C560.538 648.516 563.933 646.186 565.314 642.665L577.617 611.294L589.305 581.431C590.831 577.532 587.956 573.319 583.769 573.319V573.319C581.292 573.319 579.077 574.85 578.216 577.172C576.163 582.714 572.181 593.566 568.083 605.289C568.082 605.29 568.084 605.291 568.085 605.29V605.29ZM295.126 513.633C295.126 513.639 295.131 513.643 295.136 513.643C297.243 513.641 299.001 512.953 300.451 511.481C301.884 510.025 302.639 508.314 302.639 506.17C302.639 504.027 301.884 502.237 300.451 500.86C298.999 499.484 297.324 498.795 295.223 498.795C293.093 498.795 291.331 499.484 289.897 500.939C288.445 502.395 287.787 504.184 287.787 506.249C287.787 508.413 288.465 510.201 289.897 511.559C291.251 512.933 293.01 513.622 295.117 513.624C295.122 513.624 295.126 513.628 295.126 513.633V513.633ZM290.479 501.451C291.737 500.173 293.267 499.582 295.223 499.582C297.063 499.582 298.593 500.173 299.872 501.451C301.13 502.729 301.808 504.282 301.808 506.17C301.808 508.058 301.13 509.691 299.872 510.969C298.594 512.246 297.063 512.856 295.223 512.856C293.355 512.856 291.834 512.266 290.576 510.969C289.317 509.691 288.64 508.058 288.64 506.17C288.64 504.282 289.221 502.729 290.479 501.451ZM293.606 506.859H294.458C295.059 506.859 295.649 507.449 296.152 508.57L296.984 510.466C297.097 510.723 297.351 510.89 297.633 510.89V510.89C298.156 510.89 298.499 510.341 298.269 509.87L297.509 508.313C297.44 508.175 297.371 508.044 297.303 507.921C297.036 507.444 297.314 505.989 297.664 505.569V505.569C298.089 505.128 298.244 504.527 298.244 503.848C298.244 503.062 298.002 502.473 297.489 502.04C296.908 501.548 295.979 501.283 294.778 501.283V501.283C293.292 501.283 292.087 502.487 292.087 503.973V510.212C292.087 510.586 292.39 510.89 292.765 510.89V510.89C293.139 510.89 293.442 510.586 293.442 510.212V507.022C293.442 506.932 293.516 506.859 293.606 506.859V506.859ZM293.606 502.395H294.788C295.64 502.395 296.24 502.572 296.569 502.827C296.889 503.083 296.976 503.418 296.976 504.027C296.976 505.137 296.297 505.659 295.04 505.659V505.659C294.238 505.659 293.588 505.009 293.588 504.207V502.413C293.588 502.403 293.596 502.395 293.606 502.395V502.395ZM77.0168 506.012C77.037 506.007 77.051 505.988 77.051 505.967C77.0503 502.675 76.9561 500.216 76.8791 498.75C76.8779 498.727 76.8968 498.707 76.9205 498.707V498.707C76.9403 498.707 76.9573 498.722 76.9612 498.741C77.2984 500.453 77.7118 501.731 78.0484 502.581L90.21 530.172C90.4683 530.758 91.0482 531.136 91.6886 531.136V531.136C92.3308 531.136 92.9121 530.755 93.1693 530.167L105.332 502.326C105.67 501.546 106.006 500.378 106.417 498.756C106.423 498.733 106.444 498.717 106.467 498.717V498.717C106.498 498.717 106.521 498.743 106.519 498.773C106.271 501.602 106.185 504.06 106.185 506.023V529.071C106.185 530.26 107.15 531.225 108.339 531.225V531.225C109.529 531.225 110.493 530.26 110.493 529.071V497.035C110.493 495.227 109.027 493.761 107.219 493.761V493.761C105.925 493.761 104.752 494.524 104.227 495.707L93.5206 519.818C93.0996 520.837 92.5185 522.356 91.7772 524.362C91.76 524.409 91.7156 524.44 91.666 524.44V524.44C91.6117 524.44 91.5644 524.403 91.5507 524.35C91.2876 523.337 90.7069 521.828 89.8893 519.995L79.4798 495.767C78.9337 494.496 77.6832 493.672 76.2998 493.672V493.672C74.3884 493.672 72.8388 495.222 72.8388 497.133V529.063C72.8388 530.207 73.7665 531.135 74.9107 531.135V531.135C76.055 531.135 76.9827 530.207 76.9827 529.063V506.057C76.9827 506.036 76.9967 506.018 77.0168 506.012V506.012ZM119.934 507.932C119.934 506.905 120.766 506.073 121.793 506.073V506.073C122.82 506.073 123.653 506.905 123.653 507.932V527.546C123.653 528.573 122.82 529.405 121.793 529.405V529.405C120.766 529.405 119.934 528.573 119.934 527.546V507.932ZM121.793 497.518C122.568 497.518 123.226 497.251 123.73 496.731C124.243 496.219 124.582 495.551 124.582 494.765C124.582 493.998 124.33 493.309 123.74 492.798C123.217 492.277 122.549 492.011 121.784 492.011C121.029 492.011 120.351 492.277 119.847 492.798C119.335 493.309 118.995 493.998 118.995 494.765C118.995 495.62 119.257 496.219 119.847 496.731C120.429 497.251 121.029 497.518 121.784 497.518H121.793ZM149.365 530.35C149.869 530.1 150.163 529.572 150.163 529.009V529.009C150.163 527.695 148.613 526.907 147.393 527.395C146.187 527.878 144.944 528.118 143.676 528.118C140.965 528.118 138.766 527.175 137.159 525.366C135.562 523.576 134.71 521.087 134.71 517.99C134.71 514.746 135.562 512.168 137.324 510.202C139.018 508.314 141.217 507.37 143.909 507.37C145.034 507.37 146.137 507.551 147.206 507.912C148.534 508.361 150.163 507.5 150.163 506.098V506.098C150.163 505.46 149.816 504.863 149.226 504.618C147.687 503.981 145.975 503.684 144.083 503.684C139.861 503.684 136.57 505.061 134.11 507.717C131.67 510.371 130.411 513.98 130.411 518.336C130.411 522.21 131.505 525.465 133.781 527.953C136.153 530.509 139.185 531.807 142.902 531.807C145.408 531.736 147.517 531.264 149.365 530.35ZM160.76 517.478C160.784 517.478 160.803 517.459 160.803 517.435C160.81 514.377 161.487 511.905 162.74 510.201C163.922 508.658 165.354 507.882 167.048 507.882V507.882C168.406 507.882 170.243 506.709 170.243 505.351V505.351C170.243 504.706 169.857 504.106 169.217 504.02C168.788 503.962 168.29 503.939 167.726 503.939C166.206 503.939 164.851 504.458 163.66 505.414C162.41 506.418 161.408 507.949 160.816 509.897C160.809 509.92 160.787 509.937 160.763 509.937V509.937C160.732 509.937 160.707 509.912 160.707 509.881V506.565C160.707 505.402 159.764 504.459 158.601 504.459V504.459C157.438 504.459 156.496 505.402 156.496 506.565V529.094C156.496 530.26 157.44 531.205 158.606 531.205V531.205C159.772 531.205 160.717 530.26 160.717 529.094V517.522C160.717 517.498 160.736 517.478 160.76 517.478V517.478ZM185.038 531.731C185.038 531.733 185.041 531.736 185.043 531.736C189.011 531.735 192.204 530.436 194.575 527.862C196.937 525.304 198.119 521.864 198.119 517.576C198.119 513.201 197.035 509.858 194.827 507.369C192.639 504.883 189.598 503.682 185.628 503.682C181.658 503.682 178.463 504.882 176.091 507.202C173.555 509.76 172.218 513.368 172.218 517.999C172.218 522.031 173.303 525.374 175.588 527.862C177.949 530.436 181.075 531.725 185.033 531.726C185.036 531.726 185.038 531.728 185.038 531.731V531.731ZM179.035 509.946C180.643 508.225 182.754 507.369 185.367 507.369C188.079 507.369 190.112 508.225 191.623 509.946C193.142 511.746 193.898 514.313 193.898 517.744C193.898 521.008 193.22 523.574 191.787 525.295C190.355 527.095 188.244 528.048 185.454 528.048C182.744 528.048 180.643 527.094 179.035 525.295C177.438 523.486 176.673 521.008 176.673 517.744C176.509 514.499 177.351 511.845 179.035 509.946ZM216.593 529.41C216.6 529.407 216.606 529.403 216.612 529.398C218.213 527.945 219.063 526.157 219.063 523.918C219.063 521.952 218.384 520.32 217.126 519.031C216.099 518 214.512 517.065 212.217 516.121C210.183 515.257 208.925 514.489 208.247 513.889C207.569 513.201 207.153 512.346 207.153 511.136C207.153 510.025 207.579 509.169 208.412 508.481C209.264 507.794 210.349 507.459 211.801 507.459C212.906 507.459 213.932 507.603 214.901 507.898C216.202 508.295 217.803 507.454 217.803 506.093V506.093C217.803 505.465 217.454 504.881 216.871 504.647C215.427 504.07 213.871 503.792 212.139 503.792C209.429 503.792 207.143 504.55 205.458 506.013C203.686 507.47 202.844 509.358 202.844 511.579C202.844 513.545 203.425 515.178 204.528 516.377C205.457 517.4 207.047 518.443 209.253 519.376C211.365 520.321 212.797 521.175 213.562 521.863C214.317 522.552 214.656 523.407 214.656 524.421C214.656 526.918 212.971 528.207 209.679 528.207C208.37 528.207 207.13 527.981 205.958 527.528C204.606 527.005 202.833 527.863 202.833 529.313V529.313C202.833 529.907 203.138 530.469 203.673 530.728C205.331 531.532 207.242 531.903 209.321 531.903C212.443 531.736 214.889 530.962 216.574 529.423C216.579 529.418 216.586 529.414 216.593 529.41V529.41ZM236.713 503.678C236.707 503.681 236.7 503.682 236.693 503.682C232.727 503.685 229.536 504.885 227.166 507.203C224.649 509.761 223.293 513.369 223.293 518C223.293 522.032 224.388 525.375 226.663 527.863C229.035 530.438 232.153 531.727 236.123 531.727C240.189 531.727 243.288 530.429 245.66 527.852C248.032 525.296 249.213 521.855 249.213 517.567C249.213 513.191 248.109 509.849 245.921 507.361C243.639 504.875 240.601 503.675 236.733 503.673C236.726 503.673 236.719 503.675 236.713 503.678V503.678ZM244.89 517.744C244.892 517.744 244.894 517.746 244.894 517.749C244.894 521.011 244.216 523.576 242.784 525.296C241.351 527.095 239.24 528.048 236.451 528.048C233.739 528.048 231.639 527.094 230.031 525.296C228.434 523.486 227.669 521.008 227.669 517.744C227.669 514.303 228.512 511.648 230.206 509.858C231.803 508.147 233.915 507.281 236.538 507.281C239.152 507.281 241.254 508.146 242.773 509.858C244.129 511.744 244.884 514.31 244.885 517.739C244.885 517.742 244.887 517.744 244.89 517.744V517.744ZM256.297 531.128C256.3 531.127 256.302 531.126 256.305 531.126H257.012C258.945 531.126 260.513 529.559 260.513 527.626V511.054C260.513 509.351 261.893 507.971 263.596 507.971H264.88C265.874 507.971 266.68 507.165 266.68 506.171V506.171C266.68 505.177 265.874 504.371 264.88 504.371H263.596C261.893 504.371 260.512 502.99 260.512 501.287V500.241C260.512 496.486 261.945 494.598 264.908 494.598C264.931 494.598 264.954 494.598 264.978 494.598C266.231 494.613 267.677 493.725 267.677 492.472V492.472C267.677 491.833 267.303 491.238 266.673 491.13C266.089 491.029 265.41 491 264.636 491C262.361 491 260.502 491.689 258.982 493.143C257.21 494.854 256.271 497.076 256.271 500.086V502.244C256.271 503.475 255.274 504.472 254.043 504.472H253.615C252.621 504.472 251.816 505.277 251.816 506.271V506.271C251.816 507.265 252.621 508.07 253.615 508.07H254.043C255.274 508.07 256.271 509.068 256.271 510.298V531.11C256.271 531.124 256.285 531.133 256.297 531.128V531.128ZM273.598 523.825C273.601 523.828 273.602 523.833 273.602 523.837C273.604 529.064 275.881 531.726 280.526 531.726C281.835 531.726 282.892 531.56 283.776 531.2C284.238 531.012 284.495 530.536 284.495 530.036V530.036C284.495 528.86 282.962 528.03 281.785 528.03V528.03C280.352 528.03 279.345 527.685 278.754 526.908C278.153 526.142 277.815 524.843 277.815 523.053V511.3C277.815 509.456 279.31 507.961 281.155 507.961H282.695C283.689 507.961 284.495 507.155 284.495 506.161V506.161C284.495 505.167 283.689 504.361 282.695 504.361H281.084C279.279 504.361 277.815 502.898 277.815 501.092V499.404C277.815 497.974 276.357 496.975 274.994 497.407V497.407C274.135 497.679 273.593 498.463 273.593 499.365V502.085C273.593 503.342 272.574 504.361 271.318 504.361H270.842C269.848 504.361 269.042 505.167 269.042 506.16V506.16C269.042 507.154 269.848 507.96 270.842 507.96H271.318C272.574 507.96 273.593 508.979 273.593 510.235V523.814C273.593 523.818 273.595 523.822 273.598 523.825V523.825ZM726.73 573.132C726.732 573.132 726.732 573.129 726.731 573.128C725.299 571.755 723.606 571.067 721.507 571.067C719.377 571.067 717.614 571.756 716.181 573.23C714.748 574.676 714.069 576.475 714.069 578.541C714.069 580.684 714.748 582.474 716.17 583.85C717.604 585.226 719.365 585.916 721.496 585.916C723.597 585.916 725.369 585.226 726.822 583.771C728.245 582.296 729 580.595 729 578.462C728.922 576.301 728.159 574.512 726.728 573.136C726.727 573.135 726.728 573.132 726.73 573.132V573.132ZM726.057 583.26C724.798 584.538 723.268 585.128 721.409 585.128C719.57 585.128 718.04 584.538 716.762 583.26C715.504 581.962 714.825 580.34 714.825 578.442C714.825 576.573 715.406 575.021 716.685 573.722C717.943 572.445 719.464 571.854 721.409 571.854C723.249 571.854 724.78 572.445 726.057 573.722C727.315 575.021 727.993 576.573 727.993 578.442C727.993 580.429 727.412 581.962 726.057 583.26ZM722.258 578.881C722.26 578.883 722.263 578.884 722.265 578.883C723.018 578.706 723.618 578.362 724.033 577.941C724.46 577.498 724.615 576.897 724.615 576.211C724.615 575.444 724.373 574.834 723.86 574.411C723.279 573.919 722.34 573.653 721.15 573.653V573.653C719.663 573.653 718.458 574.859 718.458 576.345V582.572C718.458 582.946 718.761 583.25 719.136 583.25V583.25C719.51 583.25 719.814 582.946 719.814 582.572V580.06C719.814 579.595 720.191 579.218 720.656 579.218V579.218C721.237 579.218 721.818 579.808 722.34 580.929L723.16 582.812C723.273 583.072 723.53 583.24 723.814 583.24V583.24C724.341 583.24 724.685 582.688 724.454 582.214L723.697 580.663C723.266 579.558 722.771 579.045 722.266 578.87C722.259 578.868 722.254 578.875 722.258 578.881V578.881ZM721.332 578.02V578.02C720.53 578.02 719.88 577.369 719.88 576.568V575.966C719.88 575.309 720.413 574.775 721.071 574.775V574.775C721.913 574.775 722.504 574.932 722.843 575.198C723.181 575.453 723.259 575.788 723.259 576.398C723.259 577.509 722.581 578.02 721.323 578.02L721.332 578.02ZM485.771 503.26V503.26C486.424 503.26 486.953 502.731 486.953 502.079V495.217C486.953 494.353 487.653 493.653 488.516 493.653H489.479C489.811 493.653 490.079 493.385 490.079 493.054V493.054C490.079 492.722 489.811 492.454 489.479 492.454H483.244C482.913 492.454 482.644 492.722 482.644 493.054V493.054C482.644 493.385 482.913 493.653 483.244 493.653H484.208C485.072 493.653 485.772 494.354 485.772 495.218V503.259C485.772 503.26 485.772 503.26 485.771 503.26V503.26ZM492.902 496.048C492.922 496.045 492.936 496.028 492.936 496.009C492.936 495.089 492.935 494.336 492.868 493.91C492.946 494.42 493.12 494.765 493.198 495.021L496.712 502.995C496.783 503.156 496.943 503.26 497.119 503.26V503.26C497.296 503.26 497.456 503.156 497.527 502.994L501.05 494.941V494.941C501.11 494.784 501.329 494.825 501.323 494.994C501.311 495.368 501.311 495.695 501.311 495.974V502.621C501.311 502.969 501.593 503.251 501.941 503.251V503.251C502.289 503.251 502.571 502.969 502.571 502.621V493.374C502.571 492.866 502.158 492.454 501.65 492.454V492.454C501.285 492.454 500.955 492.669 500.807 493.003L497.759 499.907C497.683 500.167 497.432 500.667 497.267 501.239C497.26 501.266 497.236 501.284 497.208 501.284V501.284C497.179 501.284 497.154 501.264 497.147 501.235C497.073 500.906 496.905 500.567 496.674 500.006L493.651 493.073C493.488 492.697 493.117 492.455 492.708 492.455V492.455C492.139 492.455 491.678 492.916 491.678 493.484V502.676C491.678 503.004 491.944 503.271 492.273 503.271V503.271C492.602 503.271 492.868 503.004 492.868 502.676V496.088C492.868 496.068 492.883 496.051 492.902 496.048V496.048Z" fill="white"/>
</g>
<defs>
<filter id="filter0_dd_1_10" x="0" y="0" width="795" height="801.433" filterUnits="userSpaceOnUse" color-interpolation-filters="sRGB">
<feFlood flood-opacity="0" result="BackgroundImageFix"/>
<feColorMatrix in="SourceAlpha" type="matrix" values="0 0 0 0 0 0 0 0 0 0 0 0 0 0 0 0 0 0 127 0" result="hardAlpha"/>
<feOffset dy="4"/>
<feGaussianBlur stdDeviation="2"/>
<feComposite in2="hardAlpha" operator="out"/>
<feColorMatrix type="matrix" values="0 0 0 0 0 0 0 0 0 0 0 0 0 0 0 0 0 0 0.25 0"/>
<feBlend mode="normal" in2="BackgroundImageFix" result="effect1_dropShadow_1_10"/>
<feColorMatrix in="SourceAlpha" type="matrix" values="0 0 0 0 0 0 0 0 0 0 0 0 0 0 0 0 0 0 127 0" result="hardAlpha"/>
<feOffset dy="4"/>
<feGaussianBlur stdDeviation="2"/>
<feComposite in2="hardAlpha" operator="out"/>
<feColorMatrix type="matrix" values="0 0 0 0 0 0 0 0 0 0 0 0 0 0 0 0 0 0 0.25 0"/>
<feBlend mode="normal" in2="effect1_dropShadow_1_10" result="effect2_dropShadow_1_10"/>
<feBlend mode="normal" in="SourceGraphic" in2="effect2_dropShadow_1_10" result="shape"/>
</filter>
<linearGradient id="paint0_linear_1_10" x1="325.573" y1="453.886" x2="352.172" y2="438.449" gradientUnits="userSpaceOnUse">
<stop stop-color="#909CA9"/>
<stop offset="1" stop-color="#EDEDEE"/>
</linearGradient>
<linearGradient id="paint1_linear_1_10" x1="326.177" y1="154.977" x2="347.383" y2="154.977" gradientUnits="userSpaceOnUse">
<stop stop-color="#939FAB"/>
<stop offset="1" stop-color="#DCDEE1"/>
</linearGradient>
<radialGradient id="paint2_radial_1_10" cx="0" cy="0" r="1" gradientUnits="userSpaceOnUse" gradientTransform="translate(433.186 253.996) rotate(-171.305) scale(27.3524 55.663)">
<stop stop-color="#EE352C"/>
<stop offset="1" stop-color="#A91D22"/>
</radialGradient>
</defs>
</svg>
