<svg width="795" height="802" viewBox="0 0 795 802" fill="none" xmlns="http://www.w3.org/2000/svg">
<g filter="url(#filter0_dd_0_1)">
<rect x="4" width="787" height="793.433" rx="50" fill="#242938"/>
<path d="M441.683 292.98L368.796 317.211L305.384 345.704L287.644 350.472C283.126 354.847 278.389 359.279 273.265 363.766C267.646 368.701 262.412 373.189 258.39 376.441C253.927 380.031 247.316 386.762 243.956 391.024C238.942 397.418 234.976 404.204 233.268 409.421C230.237 418.845 231.726 428.379 237.565 437.186C245.058 448.403 259.988 459.845 277.397 467.641C286.267 471.624 301.197 476.728 312.436 479.588C331.112 484.412 367.253 489.629 387.141 490.414C391.162 490.582 396.561 490.582 396.781 490.414C397.222 490.133 400.308 484.132 403.889 476.673C416.12 451.264 424.934 427.426 429.727 407.066C432.592 394.727 434.85 378.293 436.337 358.831C436.724 353.39 436.888 335.161 436.558 328.991C436.062 318.895 435.18 310.706 433.804 302.686C433.583 301.507 433.527 300.442 433.638 300.386C433.858 300.218 434.519 299.993 443.499 297.356L441.682 292.982V292.981H441.683V292.98ZM425.045 302.909C425.706 302.909 427.469 320.128 427.909 331.01C428.02 333.309 427.964 334.823 427.854 334.823C427.414 334.823 418.543 329.496 412.209 325.457C406.699 321.923 396.232 314.856 394.58 313.51C394.027 313.118 394.082 313.062 398.601 311.491C406.258 308.854 424.439 302.909 425.045 302.909ZM387.913 315.361C388.409 315.361 389.675 316.089 392.705 317.997C404.054 325.232 419.481 333.982 426.092 336.899C428.13 337.797 428.349 337.46 423.667 340.713C413.641 347.668 401.134 354.511 385.818 361.41C383.119 362.644 380.86 363.597 380.806 363.597C380.696 363.597 381.025 362.195 381.466 360.512C385.157 346.545 387.251 332.411 387.362 321.081C387.417 315.472 387.417 315.472 387.913 315.305C387.802 315.361 387.857 315.361 387.913 315.361ZM380.255 318.333C380.585 318.669 380.365 331.234 379.924 334.655C378.932 342.844 377.39 350.472 374.856 359.054C374.25 361.128 373.698 362.868 373.589 362.98C373.368 363.26 365.82 355.744 363.341 352.828C359.043 347.779 355.684 342.731 353.204 337.796C351.937 335.272 349.954 330.336 350.119 330.168C351 329.551 380.035 318.109 380.255 318.333ZM344.224 332.748C344.279 332.748 344.334 332.748 344.39 332.804C344.499 332.916 344.886 333.814 345.216 334.823C346.979 339.703 350.945 346.882 354.361 351.482C358.108 356.53 363.011 361.914 367.087 365.447C368.41 366.569 369.621 367.634 369.786 367.803C370.117 368.14 370.227 368.083 361.247 371.561C350.836 375.599 339.486 379.638 326.484 383.9C323.378 384.92 320.275 385.948 317.174 386.985C316.678 387.154 316.843 386.873 318.276 384.574C324.721 374.309 334.527 354.174 340.037 339.927C340.974 337.459 341.91 334.992 342.076 334.431C342.296 333.645 342.571 333.365 343.287 332.972C343.673 332.861 344.059 332.748 344.224 332.748ZM333.206 337.403C333.371 337.516 330.561 343.517 327.807 349.014C322.463 359.614 316.623 370.047 308.8 382.723C307.478 384.91 306.211 386.93 306.045 387.154C305.77 387.547 305.66 387.434 304.778 385.696C302.905 381.938 301.362 377.114 300.536 372.683C299.709 368.307 299.875 360.68 300.812 355.969C301.527 352.492 301.473 352.548 303.125 351.706C310.177 348.06 332.986 337.179 333.206 337.403ZM428.24 341.33V343.685C428.24 356.193 426.918 373.356 424.989 385.865C424.659 388.052 424.382 389.846 424.328 389.903C424.328 389.903 422.731 389.455 420.858 388.893C412.594 386.256 403.614 382.386 395.515 377.844C390.17 374.871 382.403 369.991 382.624 369.766C382.678 369.711 384.992 368.477 387.691 367.018C398.491 361.297 408.847 355.128 417.827 349.014C421.188 346.714 426.256 343.013 427.359 342.003L428.24 341.33ZM291.611 357.931C291.831 357.931 291.776 358.38 291.445 360.399C291.225 361.858 290.95 364.55 290.84 366.4C290.398 374.589 291.722 380.647 295.688 388.948C296.79 391.248 297.672 393.155 297.616 393.211C297.23 393.548 260.76 404.429 249.3 407.626C245.884 408.579 242.91 409.421 242.688 409.476C242.303 409.589 242.248 409.533 242.413 408.579C243.68 400.334 249.851 389.565 258.445 380.478C264.175 374.421 268.748 370.888 276.571 366.344C282.19 363.091 290.839 358.212 291.5 357.987C291.501 357.931 291.556 357.931 291.611 357.931ZM377.555 373.58C377.61 373.524 378.932 374.254 380.53 375.207C392.32 382.162 408.737 388.612 422.73 391.921L423.998 392.202L422.234 393.211C414.907 397.362 390.832 407.569 366.206 416.937C362.625 418.282 359.099 419.629 358.437 419.909C357.776 420.189 357.17 420.358 357.17 420.302C357.17 420.245 358.162 418.282 359.428 415.871C366.315 402.746 373.257 386.761 376.783 375.655C377.225 374.59 377.499 373.637 377.555 373.58ZM368.796 376.497C368.851 376.554 368.41 377.731 367.859 379.077C363.066 390.912 356.785 403.813 348.742 418.283C346.704 421.986 344.995 424.958 344.94 424.958C344.885 424.958 343.232 423.948 341.249 422.714C329.569 415.423 319.212 406.449 312.436 397.755L311.444 396.521L316.457 395.118C334.417 390.127 349.677 384.743 364.828 378.124C366.977 377.227 368.741 376.497 368.796 376.497ZM423.227 395.848C423.282 397.138 420.472 408.692 418.158 417.049C416.23 424.06 414.576 429.557 411.547 439.26C410.225 443.523 409.069 447.056 409.013 447.056C408.958 447.056 408.627 447 408.297 446.889C391.935 443.859 377.28 439.652 363.507 434.044C359.65 432.473 354.141 429.949 353.81 429.669C353.701 429.555 357.006 427.986 361.193 426.135C386.26 414.973 412.264 402.297 421.188 396.857C422.235 396.184 423.061 395.848 423.227 395.848ZM297.561 400.223C297.671 400.335 290.675 410.599 280.868 424.565C277.452 429.445 273.486 435.166 271.998 437.297C270.511 439.428 268.252 442.794 266.985 444.813L264.67 448.459L262.191 446.328C259.271 443.859 254.203 438.587 251.944 435.671C247.206 429.67 244.011 423.332 242.744 417.555C242.138 414.862 242.138 413.515 242.688 413.348C243.514 413.124 258.224 409.59 271.998 406.336C279.656 404.542 288.525 402.411 291.72 401.626C294.916 400.839 297.506 400.223 297.561 400.223ZM304.613 402.971L306.375 404.99C314.309 414.021 322.408 420.696 332.214 426.528C333.977 427.538 335.299 428.435 335.189 428.492C334.804 428.772 301.141 440.943 285.551 446.44C276.791 449.58 269.574 452.104 269.519 452.104C269.465 452.104 268.968 451.768 268.417 451.375L267.426 450.646L269.023 448.291C274.201 440.662 280.703 432.306 294.862 414.918L304.613 402.971ZM348.577 434.997C348.631 434.942 351.055 435.838 354.03 436.961C361.193 439.709 366.867 441.448 374.47 443.411C383.836 445.823 397.388 448.179 405.377 448.852C406.589 448.963 407.25 449.076 407.03 449.245C406.643 449.469 398.546 452.217 392.596 454.124C383.119 457.153 354.196 465.846 330.617 472.746C326.264 474.036 322.518 475.101 322.297 475.157C321.747 475.27 319.928 474.764 319.928 474.54C319.928 474.428 321.25 472.69 322.848 470.783C330.781 461.135 338.66 450.366 345.216 440.158C347.034 437.353 348.577 435.053 348.577 434.997ZM338.88 435.278C338.935 435.334 335.024 441.728 328.193 452.721C325.272 457.377 322.022 462.649 320.865 464.5C319.763 466.295 318.11 469.1 317.174 470.67L315.576 473.531L314.75 473.306C312.766 472.745 298.828 467.753 295.136 466.239C290.564 464.388 285.826 462.145 282.299 460.238C277.893 457.825 272.384 454.235 272.824 454.124C272.934 454.068 280.482 451.992 289.572 449.469C313.703 442.793 327.09 438.924 335.85 436.119C337.448 435.614 338.825 435.222 338.88 435.278ZM407.47 451.655H407.525C407.745 452.217 398.821 477.457 395.569 485.421C394.854 487.216 394.58 487.665 394.193 487.608C393.256 487.553 380.31 485.702 372.431 484.524C358.714 482.392 335.685 478.297 329.9 476.952L328.578 476.672L336.786 474.763C354.416 470.725 362.9 468.538 371.494 465.846C382.348 462.481 393.092 458.274 403.944 453.114C405.652 452.328 407.084 451.712 407.47 451.655Z" fill="url(#paint0_linear_0_1)"/>
<path d="M366.537 120.003C365.325 119.836 345.766 127.015 333.151 132.23C316.127 139.298 302.905 146.029 294.751 151.861C291.722 154.05 287.92 157.919 287.314 159.433C287.094 159.994 286.983 160.667 286.983 161.34L294.366 168.464L311.94 174.185L353.756 181.813L401.575 190.17L402.072 185.964C401.907 185.964 401.796 185.908 401.632 185.908L395.35 184.898L394.084 182.599C387.582 170.932 380.42 156.461 376.234 146.701C372.984 139.129 369.898 130.38 368.19 124.098C367.253 120.284 367.143 120.06 366.538 120.004V120.003H366.537V120.003ZM365.654 122.864H365.711C365.765 122.92 365.986 124.491 366.206 126.341C367.142 134.195 368.851 141.765 371.55 149.955C373.588 156.125 373.588 155.788 371.22 155.059C365.601 153.489 340.424 149.058 322.188 146.478C319.268 146.085 316.789 145.692 316.789 145.637C316.568 145.412 329.955 138.288 335.85 135.485C343.398 131.95 364.113 123.144 365.654 122.864ZM312.546 147.992L314.695 148.72C326.374 152.759 355.738 158.48 371.936 159.826C373.753 159.995 375.296 160.163 375.351 160.163C375.405 160.219 373.864 161.061 371.88 162.014C364.058 165.996 355.463 170.876 349.513 174.634C347.75 175.755 346.152 176.653 345.932 176.653C345.712 176.653 344.555 176.429 343.343 176.26L341.139 175.923L335.631 170.426C325.934 160.836 318.331 153.432 315.411 150.627L312.546 147.992ZM310.343 149.73L318.111 159.602C322.352 165.043 326.65 170.371 327.587 171.548C328.523 172.727 329.295 173.681 329.24 173.737C329.019 173.905 318.001 171.717 312.161 170.371C306.156 168.969 303.677 168.296 299.986 167.118L296.955 166.108V165.323C297.01 161.564 301.694 155.956 309.627 150.235L310.343 149.73ZM376.343 163.192C376.564 163.192 376.839 163.696 377.5 165.211C379.373 169.417 385.214 180.747 386.645 182.935C387.087 183.664 387.857 183.72 380.09 182.43C361.414 179.345 355.408 178.336 355.408 178.224C355.408 178.168 355.959 177.775 356.675 177.382C362.46 174.13 368.3 169.979 373.479 165.548C374.746 164.482 375.903 163.472 376.123 163.304C376.178 163.192 376.288 163.136 376.343 163.192Z" fill="url(#paint1_linear_0_1)"/>
<path d="M287.699 158.648C287.699 158.648 286.488 160.612 287.644 163.529C288.361 165.323 290.454 167.51 292.823 169.754C292.823 169.754 317.339 194.096 320.314 197.574C333.866 213.503 339.761 229.208 340.312 250.859C340.643 264.769 338.053 276.996 331.608 291.186C320.148 316.651 295.962 344.752 258.665 375.937L264.12 374.086C267.646 371.393 272.439 368.534 283.677 362.251C309.626 347.78 338.825 334.487 374.635 320.801C426.2 301.057 510.989 277.948 559.249 270.434L564.263 269.648L563.491 268.414C559.084 261.459 556.053 257.14 552.417 252.541C541.84 239.192 529.004 228.367 513.302 219.393C491.706 207.11 463.773 197.519 428.405 190.395C421.739 189.048 407.084 186.469 395.184 184.618C369.951 180.637 353.644 177.888 335.684 174.747C329.239 173.624 319.597 171.942 313.206 170.54C309.901 169.81 303.566 168.296 298.608 166.558C294.641 164.986 288.911 163.416 287.699 158.648ZM301.914 172.671C301.968 172.616 302.849 172.951 304.007 173.344C306.1 174.072 308.8 174.914 311.996 175.812C314.414 176.489 316.838 177.143 319.268 177.775C322.573 178.616 325.327 179.401 325.382 179.401C325.769 179.794 331.333 197.909 333.206 204.865C333.922 207.502 334.474 209.745 334.418 209.745C334.362 209.801 333.757 208.847 333.041 207.557C326.595 196.003 316.403 184.281 304.613 174.857C303.071 173.737 301.914 172.727 301.914 172.671ZM329.019 180.299C329.295 180.299 330.507 180.467 331.993 180.804C341.359 182.935 358.163 186.188 368.905 188.039C370.724 188.319 372.156 188.657 372.156 188.768C372.156 188.881 371.495 189.273 370.668 189.722C368.851 190.675 361.523 195.106 359.099 196.789C352.984 200.939 347.475 205.426 343.508 209.464C341.91 211.091 340.532 212.437 340.532 212.437C340.532 212.437 340.203 211.484 339.926 210.306C337.944 202.509 333.812 190.955 330.065 182.822C329.459 181.533 328.963 180.355 328.963 180.243C328.963 180.355 328.963 180.299 329.019 180.299ZM376.729 189.554C377.059 189.665 377.61 191.573 378.712 195.779C380.75 203.912 381.687 212.999 381.357 221.468C381.246 223.824 381.136 226.011 381.025 226.292L380.86 226.852L377.996 225.899C372.101 223.992 362.515 221.131 354.307 218.776C349.623 217.486 345.823 216.308 345.823 216.196C345.823 215.859 352.654 208.904 355.574 206.268C361.137 201.275 376.232 189.385 376.729 189.554ZM380.53 190.114C380.696 189.946 403.338 193.928 413.641 195.947C421.299 197.461 432.427 199.817 433.088 200.098C433.419 200.21 432.261 200.883 428.57 202.566C414.026 209.241 403.227 215.241 392.486 222.534C389.676 224.441 387.307 226.011 387.252 226.011C387.197 226.011 387.142 224.385 387.142 222.421C387.142 211.765 385.048 200.996 381.191 191.909C380.805 191.012 380.475 190.171 380.53 190.114ZM439.093 201.893C439.259 202.061 438.542 206.605 437.881 209.297C435.898 217.654 430.554 230.05 423.999 241.716C422.841 243.791 421.794 245.474 421.683 245.53C421.574 245.586 420.087 244.744 418.378 243.735C411.988 239.921 404.716 236.331 396.782 232.966C394.579 232.012 392.65 231.227 392.595 231.115C392.209 230.778 409.949 218.832 419.315 213.111C426.753 208.512 438.872 201.668 439.093 201.893ZM443.28 202.566C443.776 202.566 453.803 205.371 459.036 206.941C471.983 210.868 486.858 216.42 496.554 220.907L500.575 222.759L497.766 223.431C474.077 228.983 453.803 235.378 434.245 243.455C432.647 244.128 431.214 244.689 431.105 244.689C430.995 244.689 431.546 243.399 432.262 241.828C438.157 229.096 441.958 215.803 442.894 204.473C442.95 203.407 443.114 202.566 443.28 202.566ZM343.453 225.899C343.618 225.73 351.276 227.582 355.408 228.759C361.688 230.554 375.02 235.097 375.02 235.434C375.02 235.49 373.533 236.78 371.771 238.351C364.554 244.464 357.612 250.914 349.292 259.103C346.813 261.516 344.72 263.479 344.61 263.479C344.5 263.479 344.445 263.141 344.5 262.693C345.766 253.27 345.492 241.155 343.729 228.871C343.563 227.3 343.398 225.955 343.453 225.899ZM504.378 226.068C504.487 226.179 500.851 232.012 498.538 235.321C495.233 240.145 490.383 246.54 479.42 260.562C473.636 267.965 467.134 276.323 464.987 279.127C462.782 281.931 460.965 284.287 460.909 284.287C460.854 284.287 460.139 283.278 459.367 282.044C453.196 272.621 445.814 264.376 437.054 256.972C435.401 255.569 433.584 254.055 432.978 253.606C432.372 253.158 431.876 252.709 431.876 252.653C431.876 252.485 441.24 248.39 448.349 245.474C460.8 240.313 477.766 234.144 490.494 230.161C497.16 228.03 504.267 225.955 504.378 226.068ZM508.62 227.189C508.839 227.133 510.162 227.806 511.76 228.759C525.148 236.555 538.259 246.595 548.617 256.916C551.537 259.833 558.754 267.461 558.643 267.517C558.643 267.517 556.109 267.741 553.134 267.965C529.94 269.761 500.246 274.752 471.708 281.762C469.78 282.211 468.072 282.604 467.962 282.604C467.853 282.604 470 280.416 472.7 277.781C489.448 261.347 497.106 250.97 506.141 232.461C507.407 229.713 508.51 227.357 508.62 227.189C508.565 227.189 508.565 227.189 508.62 227.189ZM385.929 239.978C386.701 240.145 393.863 243.568 399.261 246.315C404.22 248.838 411.658 252.878 412.043 253.214C412.098 253.27 409.453 254.672 406.204 256.299C395.846 261.571 386.976 266.562 377.72 272.284C375.076 273.91 372.872 275.257 372.817 275.257C372.597 275.257 372.652 275.032 374.139 272.284C379.098 263.086 383.064 252.092 385.324 241.379C385.543 240.538 385.764 239.978 385.929 239.978ZM378.767 241.323C378.932 241.492 377.059 248.39 375.903 252.148C373.643 259.272 369.842 268.19 366.151 274.92C365.269 276.49 363.947 278.79 363.231 280.08L361.854 282.323L358.769 279.295C355.188 275.761 352.267 273.574 348.522 271.61C347.033 270.826 345.877 270.152 345.877 270.041C345.877 269.592 355.298 260.898 362.515 254.616C367.693 250.073 378.602 241.155 378.767 241.323ZM422.566 259.665L425.266 261.459C431.435 265.554 438.707 270.994 444.272 275.761C447.412 278.397 453.472 283.951 454.685 285.297L455.345 286.027L450.883 287.316C425.651 294.439 406.148 300.777 383.395 309.303C380.86 310.256 378.712 311.041 378.546 311.041C378.217 311.041 377.94 311.321 383.615 305.993C398.16 292.364 411.051 277.332 420.637 262.693L422.566 259.665ZM411.051 262.581C411.161 262.693 403.614 273.518 399.096 279.631C393.697 286.923 384.111 299.15 377.5 307.114C374.746 310.424 372.377 313.172 372.266 313.229C372.101 313.284 372.046 312.443 372.046 311.153C372.046 304.366 370.338 297.13 367.363 290.961C366.096 288.381 365.875 287.764 366.152 287.484C367.198 286.53 383.23 277.219 393.366 271.667C400.198 267.965 410.885 262.469 411.051 262.581ZM341.414 279.969C341.58 279.969 342.847 280.641 344.28 281.427C347.805 283.39 350.946 285.577 353.755 287.933C353.865 288.045 352.433 289.223 350.56 290.625C345.326 294.439 337.393 300.553 332.766 304.311C327.917 308.237 327.752 308.349 328.303 307.508C331.939 301.843 333.756 298.646 335.685 294.552C337.393 290.906 339.1 286.587 340.312 282.829C340.753 281.203 341.304 279.969 341.414 279.969ZM359.981 294.775C360.256 294.72 360.587 295.224 362.074 297.468C365.214 302.235 367.638 308.63 368.245 313.79L368.354 314.912L360.808 317.885C347.309 323.213 334.859 328.486 326.429 332.411C324.061 333.533 319.928 335.552 317.229 336.899C314.53 338.3 312.326 339.366 312.326 339.31C312.326 339.255 314.033 337.964 316.127 336.393C332.6 324.223 346.869 310.873 357.557 297.524C358.714 296.122 359.761 294.832 359.87 294.776L359.981 294.775ZM351.442 296.907C351.662 297.131 345.382 304.367 341.085 308.797C330.452 319.848 319.929 328.486 306.872 336.899C305.219 337.964 303.732 338.918 303.566 339.03C303.18 339.255 303.676 338.693 309.406 332.355C313.042 328.373 315.796 325.008 318.937 320.858C321.03 318.11 321.416 317.717 324.447 315.528C332.545 309.583 351.221 296.682 351.442 296.907Z" fill="url(#paint2_radial_0_1)"/>
<path d="M186.652 541.229C186.653 541.232 186.65 541.235 186.648 541.235C185.633 541.235 184.618 541.333 183.613 541.333C163.085 542.444 149.241 551.618 141.146 569.534C134.223 585.737 134.979 606.917 141.224 623.22C148.486 639.15 160.22 647.557 179.807 650.732C183.952 651.421 186.731 653.732 194.757 663.249L202.743 672.751C203.942 674.177 205.709 675 207.571 675V675C213.153 675 215.983 668.281 212.082 664.288L210.635 662.806C204.051 656.121 198.726 650.299 198.726 649.787C198.726 649.276 201.245 648.156 204.293 647.212C214.344 644.123 222.69 636.238 228.528 624.153C233.253 614.449 233.932 611.449 234.609 599.375C236.381 563.438 217.725 540.97 186.657 541.224C186.654 541.224 186.652 541.227 186.652 541.229V541.229ZM202.362 635.212C202.359 635.215 202.355 635.218 202.351 635.22C193.637 639.504 180.988 640.358 172.73 637.281C164.19 634.096 155.922 625.089 152.203 614.892C148.069 603.742 148.659 583.172 153.384 573.909C160.985 559.16 171.036 552.375 185.723 552.375C207.508 552.375 219.902 565.926 221.519 591.392C222.797 612.648 215.789 628.595 202.372 635.205C202.369 635.207 202.365 635.209 202.362 635.212V635.212ZM511.785 571.943C511.785 571.937 511.78 571.933 511.775 571.933C504.266 571.935 498.518 575.024 494.646 581.106V581.106C493.765 582.502 491.606 581.878 491.606 580.227V576.207C491.606 574.655 490.348 573.397 488.797 573.397H485.105C481.514 573.397 478.603 576.308 478.603 579.899V642.023C478.603 645.612 481.512 648.521 485.1 648.521V648.521C488.689 648.521 491.598 645.612 491.598 642.023V624.509C491.598 602.552 491.867 599.985 494.889 593.977C499.053 585.737 506.217 581.628 513.141 583.595V583.595C515.46 584.282 517.788 582.544 517.788 580.125V574.954C517.788 573.296 516.444 571.953 514.786 571.953H511.795C511.789 571.953 511.785 571.948 511.785 571.943V571.943ZM435.392 571.244C432.844 571.244 430.143 571.589 427.453 572.189C410.052 576.809 400.244 593.722 400.845 611.126C400.845 625.699 403.632 632.984 410.557 640.625C424.742 652.444 437.57 653.387 454.882 647.046C455.957 646.581 457.067 646.089 458.044 645.652C459.879 644.831 461.049 643.004 461.049 640.993V639.443C461.049 636.277 457.684 634.245 454.882 635.719V635.719C440.871 641.913 430.318 641.913 421.864 634.617V634.617C413.735 626.211 423.472 614.726 435.166 614.726H455.306C460.9 614.726 465.435 610.191 465.435 604.597V604.597C465.435 583.948 453.197 570.91 435.381 571.244H435.392ZM414.187 604.184C414.187 604.184 414.187 604.184 414.187 604.184C414.188 604.179 416.125 591.303 423.308 586.249C426.765 583.771 430.734 582.572 434.616 582.572C438.509 582.572 442.392 583.85 445.597 586.338V586.338C453.985 592.889 444.13 604.087 433.486 604.087H414.236C414.209 604.087 414.187 604.109 414.187 604.136V604.184C414.187 604.184 414.187 604.184 414.187 604.184V604.184ZM100.703 590.63C100.703 590.632 100.7 590.634 100.698 590.632C86.6041 581.961 80.3508 575.707 81.1155 568.333C82.875 551.924 99.2774 550.538 112.783 554.639C117.035 555.93 121.916 553.026 121.948 548.584V548.584C121.965 546.254 120.589 544.147 118.356 543.483C115.1 542.516 109.854 541.329 103.481 541.225C86.7698 540.969 75.9644 546.534 70.9012 557.862C63.4645 574.578 70.0493 587.183 93.8489 601.245C107.21 609.14 113.116 615.994 113.116 623.466C113.116 638.904 94.7874 644.293 75.8782 634.607V634.607C71.6677 632.479 68.1239 634.463 68.103 639.18C68.1025 639.291 68.1021 639.4 68.1019 639.51C68.0926 643.376 70.4714 646.811 74.1745 647.923C76.4915 648.618 79.3919 649.382 82.7144 650.034C104.324 654.409 123.99 644.115 125.849 627.399C127.466 611.707 121.879 603.477 100.708 590.627C100.706 590.626 100.703 590.627 100.703 590.63V590.63ZM626.854 571.078C626.859 571.075 626.856 571.068 626.851 571.068C624.319 571.069 621.633 571.423 618.832 572.021C601.453 576.642 591.663 593.555 592.331 610.96C592.331 625.513 595.11 632.729 602.033 640.359C616.218 652.189 629.047 653.142 646.446 646.791C647.51 646.329 648.609 645.844 649.577 645.413C651.418 644.594 652.594 642.765 652.594 640.751V639.189C652.594 636.028 649.23 634.003 646.437 635.483V635.483C632.398 641.658 621.843 641.658 613.42 634.363V634.363C605.249 625.977 615.018 614.47 626.727 614.47H646.766C652.359 614.47 656.894 609.936 656.894 604.342V604.342C656.894 583.8 644.663 570.753 626.858 571.088C626.852 571.088 626.85 571.081 626.854 571.078V571.078ZM605.675 603.92C605.674 603.922 605.676 603.931 605.677 603.929C605.854 602.849 607.948 590.911 614.794 585.993C618.242 583.506 622.211 582.306 626.093 582.306C629.966 582.306 633.869 583.584 637.074 586.082V586.082C645.499 592.662 635.571 603.919 624.881 603.919H605.676C605.675 603.919 605.675 603.919 605.675 603.92V603.92ZM367.325 590.802C367.324 590.802 367.324 590.802 367.324 590.802C353.227 582.149 346.991 575.875 347.747 568.5C349.506 552.083 365.909 550.701 379.415 554.805C383.666 556.097 388.548 553.193 388.58 548.75V548.75C388.596 546.421 387.221 544.314 384.987 543.651C381.731 542.686 376.485 541.503 370.113 541.411C353.401 541.156 342.596 546.721 337.523 558.048C330.097 574.763 336.768 587.37 360.489 601.431C373.832 609.318 379.738 616.082 379.738 623.555C379.738 638.993 361.419 644.47 342.509 634.695V634.695C338.307 632.561 334.755 634.567 334.734 639.28C334.733 639.381 334.733 639.481 334.733 639.582C334.723 643.464 337.13 646.906 340.848 648.021C343.133 648.706 345.983 649.466 349.248 650.142C370.878 654.528 390.553 644.242 392.403 627.526C394.01 611.913 388.434 603.683 367.331 590.824C367.327 590.822 367.325 590.818 367.325 590.814V590.803C367.325 590.802 367.325 590.802 367.325 590.802V590.802ZM703.272 571.756C695.758 571.756 689.94 574.852 686.134 580.94V580.94C685.25 582.334 683.093 581.708 683.093 580.057V576.044C683.093 574.49 681.834 573.231 680.28 573.231H676.592C673.001 573.231 670.09 576.142 670.09 579.732V641.837C670.09 645.425 672.999 648.334 676.587 648.334V648.334C680.175 648.334 683.084 645.425 683.084 641.837V624.323C683.084 602.375 683.344 599.799 686.377 593.801C690.54 585.571 697.704 581.452 704.627 583.428V583.428C706.946 584.114 709.274 582.376 709.274 579.957V577.334C709.274 574.254 706.777 571.756 703.696 571.756L703.272 571.756ZM263.918 590.369C263.918 590.369 263.918 590.369 263.918 590.369V549.077C263.918 545.456 260.983 542.522 257.363 542.522V542.522C253.743 542.522 250.808 545.456 250.808 549.077V628.501C250.808 639.547 259.763 648.501 270.808 648.501H299.682C303.138 648.501 305.94 645.699 305.94 642.243V642.243C305.94 638.787 303.138 635.985 299.682 635.985H283.918C272.872 635.985 263.918 627.03 263.918 615.985V590.369C263.918 590.369 263.918 590.369 263.918 590.369V590.369ZM567.085 605.29C567.086 605.289 567.088 605.29 567.088 605.292L560.065 623.849C558.766 627.282 553.899 627.246 552.65 623.795L545.895 605.128L536.774 577.63C535.919 575.051 533.506 573.309 530.789 573.309V573.309C526.451 573.309 523.408 577.587 524.851 581.678C532.038 602.06 539.678 622.639 547.405 642.768C548.738 646.24 552.038 648.56 555.757 648.538V648.538C559.538 648.516 562.933 646.186 564.314 642.665L576.617 611.294L588.305 581.431C589.831 577.532 586.956 573.319 582.769 573.319V573.319C580.292 573.319 578.077 574.85 577.216 577.172C575.163 582.714 571.181 593.566 567.083 605.289C567.082 605.29 567.084 605.291 567.085 605.29V605.29ZM294.126 513.633C294.126 513.639 294.131 513.643 294.136 513.643C296.243 513.641 298.001 512.953 299.451 511.481C300.884 510.025 301.639 508.314 301.639 506.17C301.639 504.027 300.884 502.237 299.451 500.86C297.999 499.484 296.324 498.795 294.223 498.795C292.093 498.795 290.331 499.484 288.897 500.939C287.445 502.395 286.787 504.184 286.787 506.249C286.787 508.413 287.465 510.201 288.897 511.559C290.251 512.933 292.01 513.622 294.117 513.624C294.122 513.624 294.126 513.628 294.126 513.633V513.633ZM289.479 501.451C290.737 500.173 292.267 499.582 294.223 499.582C296.063 499.582 297.593 500.173 298.872 501.451C300.13 502.729 300.808 504.282 300.808 506.17C300.808 508.058 300.13 509.691 298.872 510.969C297.594 512.246 296.063 512.856 294.223 512.856C292.355 512.856 290.834 512.266 289.576 510.969C288.317 509.691 287.64 508.058 287.64 506.17C287.64 504.282 288.221 502.729 289.479 501.451ZM292.606 506.859H293.458C294.059 506.859 294.649 507.449 295.152 508.57L295.984 510.466C296.097 510.723 296.351 510.89 296.633 510.89V510.89C297.156 510.89 297.499 510.341 297.269 509.87L296.509 508.313C296.44 508.175 296.371 508.044 296.303 507.921C296.036 507.444 296.314 505.989 296.664 505.569V505.569C297.089 505.128 297.244 504.527 297.244 503.848C297.244 503.062 297.002 502.473 296.489 502.04C295.908 501.548 294.979 501.283 293.778 501.283V501.283C292.292 501.283 291.087 502.487 291.087 503.973V510.212C291.087 510.586 291.39 510.89 291.765 510.89V510.89C292.139 510.89 292.442 510.586 292.442 510.212V507.022C292.442 506.932 292.516 506.859 292.606 506.859V506.859ZM292.606 502.395H293.788C294.64 502.395 295.24 502.572 295.569 502.827C295.889 503.083 295.976 503.418 295.976 504.027C295.976 505.137 295.297 505.659 294.04 505.659V505.659C293.238 505.659 292.588 505.009 292.588 504.207V502.413C292.588 502.403 292.596 502.395 292.606 502.395V502.395ZM76.0168 506.012C76.037 506.007 76.051 505.988 76.051 505.967C76.0503 502.675 75.9561 500.216 75.8791 498.75C75.8779 498.727 75.8968 498.707 75.9205 498.707V498.707C75.9403 498.707 75.9573 498.722 75.9612 498.741C76.2984 500.453 76.7118 501.731 77.0484 502.581L89.21 530.172C89.4683 530.758 90.0482 531.136 90.6886 531.136V531.136C91.3308 531.136 91.9121 530.755 92.1693 530.167L104.332 502.326C104.67 501.546 105.006 500.378 105.417 498.756C105.423 498.733 105.444 498.717 105.467 498.717V498.717C105.498 498.717 105.521 498.743 105.519 498.773C105.271 501.602 105.185 504.06 105.185 506.023V529.071C105.185 530.26 106.15 531.225 107.339 531.225V531.225C108.529 531.225 109.493 530.26 109.493 529.071V497.035C109.493 495.227 108.027 493.761 106.219 493.761V493.761C104.925 493.761 103.752 494.524 103.227 495.707L92.5206 519.818C92.0996 520.837 91.5185 522.356 90.7772 524.362C90.76 524.409 90.7156 524.44 90.666 524.44V524.44C90.6117 524.44 90.5644 524.403 90.5507 524.35C90.2876 523.337 89.7069 521.828 88.8893 519.995L78.4798 495.767C77.9337 494.496 76.6832 493.672 75.2998 493.672V493.672C73.3884 493.672 71.8388 495.222 71.8388 497.133V529.063C71.8388 530.207 72.7665 531.135 73.9107 531.135V531.135C75.055 531.135 75.9827 530.207 75.9827 529.063V506.057C75.9827 506.036 75.9967 506.018 76.0168 506.012V506.012ZM118.934 507.932C118.934 506.905 119.766 506.073 120.793 506.073V506.073C121.82 506.073 122.653 506.905 122.653 507.932V527.546C122.653 528.573 121.82 529.405 120.793 529.405V529.405C119.766 529.405 118.934 528.573 118.934 527.546V507.932ZM120.793 497.518C121.568 497.518 122.226 497.251 122.73 496.731C123.243 496.219 123.582 495.551 123.582 494.765C123.582 493.998 123.33 493.309 122.74 492.798C122.217 492.277 121.549 492.011 120.784 492.011C120.029 492.011 119.351 492.277 118.847 492.798C118.335 493.309 117.995 493.998 117.995 494.765C117.995 495.62 118.257 496.219 118.847 496.731C119.429 497.251 120.029 497.518 120.784 497.518H120.793ZM148.365 530.35C148.869 530.1 149.163 529.572 149.163 529.009V529.009C149.163 527.695 147.613 526.907 146.393 527.395C145.187 527.878 143.944 528.118 142.676 528.118C139.965 528.118 137.766 527.175 136.159 525.366C134.562 523.576 133.71 521.087 133.71 517.99C133.71 514.746 134.562 512.168 136.324 510.202C138.018 508.314 140.217 507.37 142.909 507.37C144.034 507.37 145.137 507.551 146.206 507.912C147.534 508.361 149.163 507.5 149.163 506.098V506.098C149.163 505.46 148.816 504.863 148.226 504.618C146.687 503.981 144.975 503.684 143.083 503.684C138.861 503.684 135.57 505.061 133.11 507.717C130.67 510.371 129.411 513.98 129.411 518.336C129.411 522.21 130.505 525.465 132.781 527.953C135.153 530.509 138.185 531.807 141.902 531.807C144.408 531.736 146.517 531.264 148.365 530.35ZM159.76 517.478C159.784 517.478 159.803 517.459 159.803 517.435C159.81 514.377 160.487 511.905 161.74 510.201C162.922 508.658 164.354 507.882 166.048 507.882V507.882C167.406 507.882 169.243 506.709 169.243 505.351V505.351C169.243 504.706 168.857 504.106 168.217 504.02C167.788 503.962 167.29 503.939 166.726 503.939C165.206 503.939 163.851 504.458 162.66 505.414C161.41 506.418 160.408 507.949 159.816 509.897C159.809 509.92 159.787 509.937 159.763 509.937V509.937C159.732 509.937 159.707 509.912 159.707 509.881V506.565C159.707 505.402 158.764 504.459 157.601 504.459V504.459C156.438 504.459 155.496 505.402 155.496 506.565V529.094C155.496 530.26 156.44 531.205 157.606 531.205V531.205C158.772 531.205 159.717 530.26 159.717 529.094V517.522C159.717 517.498 159.736 517.478 159.76 517.478V517.478ZM184.038 531.731C184.038 531.733 184.041 531.736 184.043 531.736C188.011 531.735 191.204 530.436 193.575 527.862C195.937 525.304 197.119 521.864 197.119 517.576C197.119 513.201 196.035 509.858 193.827 507.369C191.639 504.883 188.598 503.682 184.628 503.682C180.658 503.682 177.463 504.882 175.091 507.202C172.555 509.76 171.218 513.368 171.218 517.999C171.218 522.031 172.303 525.374 174.588 527.862C176.949 530.436 180.075 531.725 184.033 531.726C184.036 531.726 184.038 531.728 184.038 531.731V531.731ZM178.035 509.946C179.643 508.225 181.754 507.369 184.367 507.369C187.079 507.369 189.112 508.225 190.623 509.946C192.142 511.746 192.898 514.313 192.898 517.744C192.898 521.008 192.22 523.574 190.787 525.295C189.355 527.095 187.244 528.048 184.454 528.048C181.744 528.048 179.643 527.094 178.035 525.295C176.438 523.486 175.673 521.008 175.673 517.744C175.509 514.499 176.351 511.845 178.035 509.946ZM215.593 529.41C215.6 529.407 215.606 529.403 215.612 529.398C217.213 527.945 218.063 526.157 218.063 523.918C218.063 521.952 217.384 520.32 216.126 519.031C215.099 518 213.512 517.065 211.217 516.121C209.183 515.257 207.925 514.489 207.247 513.889C206.569 513.201 206.153 512.346 206.153 511.136C206.153 510.025 206.579 509.169 207.412 508.481C208.264 507.794 209.349 507.459 210.801 507.459C211.906 507.459 212.932 507.603 213.901 507.898C215.202 508.295 216.803 507.454 216.803 506.093V506.093C216.803 505.465 216.454 504.881 215.871 504.647C214.427 504.07 212.871 503.792 211.139 503.792C208.429 503.792 206.143 504.55 204.458 506.013C202.686 507.47 201.844 509.358 201.844 511.579C201.844 513.545 202.425 515.178 203.528 516.377C204.457 517.4 206.047 518.443 208.253 519.376C210.365 520.321 211.797 521.175 212.562 521.863C213.317 522.552 213.656 523.407 213.656 524.421C213.656 526.918 211.971 528.207 208.679 528.207C207.37 528.207 206.13 527.981 204.958 527.528C203.606 527.005 201.833 527.863 201.833 529.313V529.313C201.833 529.907 202.138 530.469 202.673 530.728C204.331 531.532 206.242 531.903 208.321 531.903C211.443 531.736 213.889 530.962 215.574 529.423C215.579 529.418 215.586 529.414 215.593 529.41V529.41ZM235.713 503.678C235.707 503.681 235.7 503.682 235.693 503.682C231.727 503.685 228.536 504.885 226.166 507.203C223.649 509.761 222.293 513.369 222.293 518C222.293 522.032 223.388 525.375 225.663 527.863C228.035 530.438 231.153 531.727 235.123 531.727C239.189 531.727 242.288 530.429 244.66 527.852C247.032 525.296 248.213 521.855 248.213 517.567C248.213 513.191 247.109 509.849 244.921 507.361C242.639 504.875 239.601 503.675 235.733 503.673C235.726 503.673 235.719 503.675 235.713 503.678V503.678ZM243.89 517.744C243.892 517.744 243.894 517.746 243.894 517.749C243.894 521.011 243.216 523.576 241.784 525.296C240.351 527.095 238.24 528.048 235.451 528.048C232.739 528.048 230.639 527.094 229.031 525.296C227.434 523.486 226.669 521.008 226.669 517.744C226.669 514.303 227.512 511.648 229.206 509.858C230.803 508.147 232.915 507.281 235.538 507.281C238.152 507.281 240.254 508.146 241.773 509.858C243.129 511.744 243.884 514.31 243.885 517.739C243.885 517.742 243.887 517.744 243.89 517.744V517.744ZM255.297 531.128C255.3 531.127 255.302 531.126 255.305 531.126H256.012C257.945 531.126 259.513 529.559 259.513 527.626V511.054C259.513 509.351 260.893 507.971 262.596 507.971H263.88C264.874 507.971 265.68 507.165 265.68 506.171V506.171C265.68 505.177 264.874 504.371 263.88 504.371H262.596C260.893 504.371 259.512 502.99 259.512 501.287V500.241C259.512 496.486 260.945 494.598 263.908 494.598C263.931 494.598 263.954 494.598 263.978 494.598C265.231 494.613 266.677 493.725 266.677 492.472V492.472C266.677 491.833 266.303 491.238 265.673 491.13C265.089 491.029 264.41 491 263.636 491C261.361 491 259.502 491.689 257.982 493.143C256.21 494.854 255.271 497.076 255.271 500.086V502.244C255.271 503.475 254.274 504.472 253.043 504.472H252.615C251.621 504.472 250.816 505.277 250.816 506.271V506.271C250.816 507.265 251.621 508.07 252.615 508.07H253.043C254.274 508.07 255.271 509.068 255.271 510.298V531.11C255.271 531.124 255.285 531.133 255.297 531.128V531.128ZM272.598 523.825C272.601 523.828 272.602 523.833 272.602 523.837C272.604 529.064 274.881 531.726 279.526 531.726C280.835 531.726 281.892 531.56 282.776 531.2C283.238 531.012 283.495 530.536 283.495 530.036V530.036C283.495 528.86 281.962 528.03 280.785 528.03V528.03C279.352 528.03 278.345 527.685 277.754 526.908C277.153 526.142 276.815 524.843 276.815 523.053V511.3C276.815 509.456 278.31 507.961 280.155 507.961H281.695C282.689 507.961 283.495 507.155 283.495 506.161V506.161C283.495 505.167 282.689 504.361 281.695 504.361H280.084C278.279 504.361 276.815 502.898 276.815 501.092V499.404C276.815 497.974 275.357 496.975 273.994 497.407V497.407C273.135 497.679 272.593 498.463 272.593 499.365V502.085C272.593 503.342 271.574 504.361 270.318 504.361H269.842C268.848 504.361 268.042 505.167 268.042 506.16V506.16C268.042 507.154 268.848 507.96 269.842 507.96H270.318C271.574 507.96 272.593 508.979 272.593 510.235V523.814C272.593 523.818 272.595 523.822 272.598 523.825V523.825ZM725.73 573.132C725.732 573.132 725.732 573.129 725.731 573.128C724.299 571.755 722.606 571.067 720.507 571.067C718.377 571.067 716.614 571.756 715.181 573.23C713.748 574.676 713.069 576.475 713.069 578.541C713.069 580.684 713.748 582.474 715.17 583.85C716.604 585.226 718.365 585.916 720.496 585.916C722.597 585.916 724.369 585.226 725.822 583.771C727.245 582.296 728 580.595 728 578.462C727.922 576.301 727.159 574.512 725.728 573.136C725.727 573.135 725.728 573.132 725.73 573.132V573.132ZM725.057 583.26C723.798 584.538 722.268 585.128 720.409 585.128C718.57 585.128 717.04 584.538 715.762 583.26C714.504 581.962 713.825 580.34 713.825 578.442C713.825 576.573 714.406 575.021 715.685 573.722C716.943 572.445 718.464 571.854 720.409 571.854C722.249 571.854 723.78 572.445 725.057 573.722C726.315 575.021 726.993 576.573 726.993 578.442C726.993 580.429 726.412 581.962 725.057 583.26ZM721.258 578.881C721.26 578.883 721.263 578.884 721.265 578.883C722.018 578.706 722.618 578.362 723.033 577.941C723.46 577.498 723.615 576.897 723.615 576.211C723.615 575.444 723.373 574.834 722.86 574.411C722.279 573.919 721.34 573.653 720.15 573.653V573.653C718.663 573.653 717.458 574.859 717.458 576.345V582.572C717.458 582.946 717.761 583.25 718.136 583.25V583.25C718.51 583.25 718.814 582.946 718.814 582.572V580.06C718.814 579.595 719.191 579.218 719.656 579.218V579.218C720.237 579.218 720.818 579.808 721.34 580.929L722.16 582.812C722.273 583.072 722.53 583.24 722.814 583.24V583.24C723.341 583.24 723.685 582.688 723.454 582.214L722.697 580.663C722.266 579.558 721.771 579.045 721.266 578.87C721.259 578.868 721.254 578.875 721.258 578.881V578.881ZM720.332 578.02V578.02C719.53 578.02 718.88 577.369 718.88 576.568V575.966C718.88 575.309 719.413 574.775 720.071 574.775V574.775C720.913 574.775 721.504 574.932 721.843 575.198C722.181 575.453 722.259 575.788 722.259 576.398C722.259 577.509 721.581 578.02 720.323 578.02L720.332 578.02ZM484.771 503.26V503.26C485.424 503.26 485.953 502.731 485.953 502.079V495.217C485.953 494.353 486.653 493.653 487.516 493.653H488.479C488.811 493.653 489.079 493.385 489.079 493.054V493.054C489.079 492.722 488.811 492.454 488.479 492.454H482.244C481.913 492.454 481.644 492.722 481.644 493.054V493.054C481.644 493.385 481.913 493.653 482.244 493.653H483.208C484.072 493.653 484.772 494.354 484.772 495.218V503.259C484.772 503.26 484.772 503.26 484.771 503.26V503.26ZM491.902 496.048C491.922 496.045 491.936 496.028 491.936 496.009C491.936 495.089 491.935 494.336 491.868 493.91C491.946 494.42 492.12 494.765 492.198 495.021L495.712 502.995C495.783 503.156 495.943 503.26 496.119 503.26V503.26C496.296 503.26 496.456 503.156 496.527 502.994L500.05 494.941V494.941C500.11 494.784 500.329 494.825 500.323 494.994C500.311 495.368 500.311 495.695 500.311 495.974V502.621C500.311 502.969 500.593 503.251 500.941 503.251V503.251C501.289 503.251 501.571 502.969 501.571 502.621V493.374C501.571 492.866 501.158 492.454 500.65 492.454V492.454C500.285 492.454 499.955 492.669 499.807 493.003L496.759 499.907C496.683 500.167 496.432 500.667 496.267 501.239C496.26 501.266 496.236 501.284 496.208 501.284V501.284C496.179 501.284 496.154 501.264 496.147 501.235C496.073 500.906 495.905 500.567 495.674 500.006L492.651 493.073C492.488 492.697 492.117 492.455 491.708 492.455V492.455C491.139 492.455 490.678 492.916 490.678 493.484V502.676C490.678 503.004 490.944 503.271 491.273 503.271V503.271C491.602 503.271 491.868 503.004 491.868 502.676V496.088C491.868 496.068 491.883 496.051 491.902 496.048V496.048Z" fill="white"/>
</g>
<defs>
<filter id="filter0_dd_0_1" x="0" y="0" width="795" height="801.433" filterUnits="userSpaceOnUse" color-interpolation-filters="sRGB">
<feFlood flood-opacity="0" result="BackgroundImageFix"/>
<feColorMatrix in="SourceAlpha" type="matrix" values="0 0 0 0 0 0 0 0 0 0 0 0 0 0 0 0 0 0 127 0" result="hardAlpha"/>
<feOffset dy="4"/>
<feGaussianBlur stdDeviation="2"/>
<feComposite in2="hardAlpha" operator="out"/>
<feColorMatrix type="matrix" values="0 0 0 0 0 0 0 0 0 0 0 0 0 0 0 0 0 0 0.25 0"/>
<feBlend mode="normal" in2="BackgroundImageFix" result="effect1_dropShadow_0_1"/>
<feColorMatrix in="SourceAlpha" type="matrix" values="0 0 0 0 0 0 0 0 0 0 0 0 0 0 0 0 0 0 127 0" result="hardAlpha"/>
<feOffset dy="4"/>
<feGaussianBlur stdDeviation="2"/>
<feComposite in2="hardAlpha" operator="out"/>
<feColorMatrix type="matrix" values="0 0 0 0 0 0 0 0 0 0 0 0 0 0 0 0 0 0 0.25 0"/>
<feBlend mode="normal" in2="effect1_dropShadow_0_1" result="effect2_dropShadow_0_1"/>
<feBlend mode="normal" in="SourceGraphic" in2="effect2_dropShadow_0_1" result="shape"/>
</filter>
<linearGradient id="paint0_linear_0_1" x1="286.573" y1="453.886" x2="313.172" y2="438.449" gradientUnits="userSpaceOnUse">
<stop stop-color="#909CA9"/>
<stop offset="1" stop-color="#EDEDEE"/>
</linearGradient>
<linearGradient id="paint1_linear_0_1" x1="287.177" y1="154.977" x2="308.383" y2="154.977" gradientUnits="userSpaceOnUse">
<stop stop-color="#939FAB"/>
<stop offset="1" stop-color="#DCDEE1"/>
</linearGradient>
<radialGradient id="paint2_radial_0_1" cx="0" cy="0" r="1" gradientUnits="userSpaceOnUse" gradientTransform="translate(394.186 253.996) rotate(-171.305) scale(27.3524 55.663)">
<stop stop-color="#EE352C"/>
<stop offset="1" stop-color="#A91D22"/>
</radialGradient>
</defs>
</svg>
